<?xml version="1.0" standalone="no"?>
<!DOCTYPE svg PUBLIC "-//W3C//DTD SVG 20010904//EN"
 "http://www.w3.org/TR/2001/REC-SVG-20010904/DTD/svg10.dtd">
<svg version="1.0" xmlns="http://www.w3.org/2000/svg"
 width="1280.000000pt" height="1244.000000pt" viewBox="0 0 1280.000000 1244.000000"
 preserveAspectRatio="xMidYMid meet">
<metadata>
Created by potrace 1.15, written by Peter Selinger 2001-2017
</metadata>
<g transform="translate(0.000000,1244.000000) scale(0.100000,-0.100000)"
fill="#9e9e9e" stroke="none">
<path d="M3880 12424 c-305 -7 -583 -14 -616 -16 l-62 -3 774 -2195 c426
-1207 859 -2436 963 -2730 l189 -535 -102 -7 c-55 -3 -371 -11 -701 -18 -330
-6 -775 -15 -990 -20 -214 -5 -563 -12 -775 -16 l-385 -7 -510 618 -510 618
-400 -7 c-220 -3 -479 -9 -576 -13 l-176 -6 324 -973 324 -973 -280 -979
c-155 -538 -281 -984 -281 -991 0 -10 25 -12 117 -7 65 3 289 8 498 11 209 3
415 8 459 11 l78 6 475 637 c262 350 479 640 483 644 6 7 224 13 1310 37 1212
26 1539 31 1591 28 l56 -3 -47 -155 c-26 -85 -104 -339 -173 -565 -157 -513
-573 -1874 -717 -2345 -60 -195 -233 -762 -385 -1260 -352 -1151 -367 -1201
-362 -1206 4 -4 459 4 1188 22 l266 7 1598 2791 c878 1535 1601 2795 1605
2799 8 9 241 15 1265 37 286 6 711 15 945 20 234 5 679 14 990 20 895 17 949
22 1115 108 83 44 204 160 253 244 105 179 130 418 63 616 -63 189 -172 319
-332 395 -52 25 -119 51 -149 59 -79 19 -285 16 -2358 -28 -1586 -33 -1814
-36 -1826 -24 -12 14 -3381 5283 -3415 5342 l-16 28 -115 -1 c-63 -1 -365 -8
-670 -15z"/>
</g>
</svg>
